<?xml version="1.0" encoding="iso-8859-1"?>
<!-- Uploaded to: SVG Repo, www.svgrepo.com, Generator: SVG Repo Mixer Tools -->
<svg fill="#000000" height="800px" width="800px" version="1.1" id="Capa_1" xmlns="http://www.w3.org/2000/svg" xmlns:xlink="http://www.w3.org/1999/xlink" 
	 viewBox="0 0 612 612" xml:space="preserve">
<g>
	<g>
		<path d="M486.163,336.876c0-82.796-67.358-150.154-150.154-150.154c-69.652,0-129.48,47.502-145.787,114.237
			c-5.443,0.005-137.796,0.015-137.796,0.015c-12.184,0-22.241,2.839-30.742,8.678C4.362,321.548-3.701,344.04,1.621,365.618
			c5.378,21.802,25.09,37.274,47.931,37.621c3.863,0.06,108.32-0.07,112.997,0c4.344,0.065,8.426,1.885,11.201,4.993
			c1.768,1.98,3.776,5.355,3.299,10.186c-0.469,4.747-3.576,9.12-7.918,11.141c-2.331,1.084-5.289,1.303-9.305,1.303
			c-0.745,0-5.055-0.028-5.055-0.028c-6.993,0-14.916,0-23.176,3.042c-10.559,3.889-19.569,11.36-25.37,21.033
			c-11.873,19.799-8.271,45.665,8.564,61.503c9.323,8.767,21.672,13.418,35.717,13.442c12.731,0.024,255.229,0.016,256.364-0.002
			c20.731-0.302,39.383-13.319,46.41-32.394c6.821-18.52,1.44-39.663-12.478-53.046
			C469.792,416.241,486.163,377.822,486.163,336.876z M336.009,209.448c70.264,0,127.428,57.164,127.428,127.428
			c0,37.048-15.793,71.66-43.52,95.896c-6.329-1.615-12.655-1.935-18.736-1.935c-13.725,0-27.456,0.067-41.188,0.133
			c-13.699,0.067-27.398,0.133-41.095,0.133c-15.325,0-28.727-0.088-40.969-0.265c-7.165-0.104-14.78-4.975-14.78-13.801
			c0-4.805,2.685-9.485,6.841-11.92c2.992-1.752,6.618-1.877,12.233-1.877h1.639c7,0,14.933,0,23.185-3.04
			c10.558-3.889,19.567-11.36,25.369-21.035c11.11-18.527,9.258-43.897-4.406-60.325c-9.527-11.457-23.439-17.801-39.172-17.868
			c-25.031-0.101-50.064-0.068-75.096-0.036C229.414,247.192,278.806,209.448,336.009,209.448z M431.956,489.607
			c-3.802,10.316-14.015,17.359-25.417,17.527c-1.024,0.015-141.484-0.002-141.484-0.002c-12.728,0-25.455,0.008-38.181,0.016
			c-25.439,0.016-50.88,0.032-76.324-0.016c-8.284-0.016-15.075-2.463-20.187-7.271c-8.964-8.431-10.96-22.731-4.646-33.261
			c3.146-5.243,8.022-9.293,13.735-11.397c4.456-1.641,9.491-1.641,15.321-1.641c0,0,4.245,0.028,5.055,0.028
			c5.992,0,12.428-0.416,18.897-3.427c11.658-5.427,19.682-16.736,20.944-29.511c1.003-10.172-2.178-19.955-8.961-27.554
			c-6.996-7.837-17.135-12.423-27.817-12.582c-4.829-0.073-109.278,0.055-112.987,0c-12.527-0.192-23.306-8.556-26.213-20.341
			c-3.07-12.442,1.295-25.218,10.863-31.789c4.654-3.198,10.335-4.686,17.877-4.686c0,0,210.811-0.104,236.321,0
			c8.897,0.036,16.637,3.472,21.793,9.672c7.441,8.949,8.49,23.93,2.388,34.107c-3.146,5.245-8.024,9.295-13.735,11.397
			c-4.449,1.639-9.733,1.639-15.329,1.639h-1.639c-6.41,0-15.191,0-23.718,4.993c-11.155,6.534-18.083,18.616-18.082,31.531
			c0,20.179,16.33,36.22,37.177,36.522c12.353,0.179,25.862,0.268,41.298,0.268c13.733,0,68.595-0.266,82.283-0.266
			c8.06,0,14.111,0.635,19.377,3.79C431.427,463.871,436.328,477.737,431.956,489.607z"/>
		<path d="M336.015,131.091c6.276,0,11.363-5.087,11.363-11.363V72.247c0-6.276-5.087-11.363-11.363-11.363
			s-11.363,5.087-11.363,11.363v47.481C324.652,126.005,329.738,131.091,336.015,131.091z"/>
		<path d="M502.496,181.752c2.909,0,5.816-1.11,8.035-3.328l36.402-36.402c4.438-4.438,4.438-11.632,0-16.071
			c-4.436-4.435-11.632-4.435-16.069,0l-36.404,36.404c-4.438,4.438-4.438,11.632,0,16.071
			C496.68,180.643,499.587,181.752,502.496,181.752z"/>
		<path d="M600.637,325.507h-47.481c-6.276,0-11.363,5.087-11.363,11.363c0,6.276,5.087,11.363,11.363,11.363h47.481
			c6.276,0,11.363-5.087,11.363-11.363C612,330.594,606.912,325.507,600.637,325.507z"/>
		<path d="M510.53,495.314c-4.436-4.435-11.632-4.435-16.069,0c-4.438,4.438-4.438,11.632,0,16.071l36.404,36.404
			c2.219,2.217,5.126,3.328,8.035,3.328c2.909,0,5.816-1.11,8.035-3.328c4.438-4.438,4.438-11.632,0-16.07L510.53,495.314z"/>
		<path d="M161.499,178.426c2.219,2.217,5.126,3.328,8.035,3.328c2.909,0,5.816-1.11,8.035-3.329c4.438-4.436,4.438-11.631,0-16.069
			l-36.405-36.405c-4.436-4.435-11.632-4.436-16.069,0.002c-4.438,4.436-4.438,11.631,0,16.069L161.499,178.426z"/>
	</g>
</g>
</svg>